<svg width="101" height="62" viewBox="0 0 101 62" fill="none" xmlns="http://www.w3.org/2000/svg">
<g style="mix-blend-mode:luminosity" opacity="0.55">
<path d="M57.9196 102.611C58.6129 102.419 59.155 102.031 59.546 101.448L68.9289 87.4537C69.5805 86.4819 69.853 85.5846 69.7465 84.7619C69.575 83.8956 69.3923 83.2566 69.1983 82.8448L58.9867 57.6849L86.3352 57.2863C86.7898 57.3094 87.4504 57.2358 88.3169 57.0654C89.1619 56.7868 89.9102 56.1616 90.5618 55.1898L100.271 40.7099C100.661 40.1268 100.793 39.5104 100.664 38.8607C100.471 38.1675 100.114 37.647 99.5955 37.299C99.4009 37.1685 99.1845 37.0704 98.9465 37.0047C98.7519 36.8743 98.5139 36.8086 98.2324 36.8077L52.2737 36.9838L6.18293 38.1984C5.66339 38.1318 5.00283 38.2054 4.20123 38.4192C3.33476 38.5896 2.57573 39.1607 1.92414 40.1325L-7.52395 54.2236C-7.9149 54.8067 -8.01366 55.4449 -7.82021 56.138C-7.69163 56.7877 -7.36787 57.2866 -6.84892 57.6345C-6.4597 57.8955 -6.00533 58.0593 -5.4858 58.1259L37.8405 58.7203L55.1621 101.044C55.2699 101.304 55.3993 101.532 55.5505 101.727C55.7016 101.922 55.8745 102.085 56.0691 102.216C56.5881 102.564 57.2049 102.695 57.9196 102.611Z" fill="#FF8730"/>
<path d="M43.0282 2.45888C49.0648 6.50639 50.6823 14.6737 46.641 20.701C42.5997 26.7283 34.43 28.3332 28.3934 24.2857C22.3568 20.2382 20.7393 12.0709 24.7806 6.04363C28.8219 0.0163075 36.9916 -1.58864 43.0282 2.45888Z" fill="#FF8730"/>
</g>
</svg>
