<svg width="122" height="72" viewBox="0 0 122 72" fill="none" xmlns="http://www.w3.org/2000/svg">
<g style="mix-blend-mode:luminosity" opacity="0.75">
<path d="M70.5595 -37.881C71.3609 -37.7283 72.0097 -37.3408 72.506 -36.7186L84.4169 -21.7849C85.244 -20.7478 85.6359 -19.7595 85.5924 -18.8199C85.4798 -17.8251 85.3331 -17.086 85.1524 -16.6025L75.9685 12.7806L106.906 10.6722C107.418 10.6036 108.171 10.625 109.166 10.7364C110.147 10.9721 111.051 11.6085 111.878 12.6456L124.203 28.0978C124.699 28.72 124.905 29.4042 124.82 30.1503C124.667 30.9516 124.313 31.5731 123.759 32.0148C123.551 32.1805 123.316 32.3115 123.053 32.408C122.846 32.5737 122.583 32.6702 122.265 32.6975L70.3204 36.7984L18.1297 39.7384C17.5489 39.8623 16.7956 39.8409 15.8699 39.6743C14.875 39.5629 13.9639 38.9887 13.1368 37.9516L1.14315 22.9142C0.646867 22.292 0.475582 21.5802 0.629301 20.7789C0.713791 20.0328 1.03294 19.4389 1.58674 18.9972C2.00209 18.6659 2.50015 18.4383 3.08093 18.3145L51.9789 13.5891L67.5905 -35.8523C67.6879 -36.1562 67.8128 -36.4255 67.9653 -36.6603C68.1179 -36.8951 68.298 -37.0953 68.5056 -37.2609C69.0594 -37.7026 69.7441 -37.9093 70.5595 -37.881Z" fill="#FF7715"/>
<path d="M63.1043 76.6726C69.5463 71.5346 70.6097 62.1552 65.4796 55.7232C60.3495 49.2911 50.9685 48.2421 44.5265 53.3801C38.0846 58.5181 37.0211 67.8975 42.1513 74.3295C47.2814 80.7616 56.6624 81.8106 63.1043 76.6726Z" fill="#FF7715"/>
</g>
</svg>
