<svg width="343" height="397" viewBox="0 0 343 397" fill="none" xmlns="http://www.w3.org/2000/svg">
<g clip-path="url(#clip0_72_8372)">
<rect width="343" height="397" rx="20" fill="#020248"/>
<path d="M206.5 213C121.026 70.0606 133.439 -114.873 362.5 -16L590.549 175.274L323.418 601.954L23.583 414.237C-107.306 337.859 307.616 382.098 206.5 213Z" fill="#040457"/>
<path d="M140.874 204C140.75 204 140.653 203.966 140.585 203.898C140.517 203.819 140.483 203.722 140.483 203.609V192.508C140.483 192.383 140.517 192.287 140.585 192.219C140.653 192.14 140.75 192.1 140.874 192.1H145.532C146.382 192.1 147.074 192.242 147.606 192.525C148.15 192.797 148.547 193.171 148.796 193.647C149.057 194.123 149.187 194.656 149.187 195.245C149.187 195.71 149.108 196.112 148.949 196.452C148.802 196.781 148.615 197.053 148.388 197.268C148.162 197.472 147.941 197.631 147.725 197.744C148.167 197.959 148.558 198.311 148.898 198.798C149.25 199.285 149.425 199.875 149.425 200.566C149.425 201.189 149.284 201.762 149 202.283C148.717 202.804 148.292 203.224 147.725 203.541C147.17 203.847 146.479 204 145.651 204H140.874ZM142.149 202.623H145.43C146.167 202.623 146.734 202.425 147.13 202.028C147.527 201.631 147.725 201.144 147.725 200.566C147.725 199.965 147.527 199.472 147.13 199.087C146.734 198.69 146.167 198.492 145.43 198.492H142.149V202.623ZM142.149 197.132H145.277C146.003 197.132 146.552 196.968 146.926 196.639C147.3 196.299 147.487 195.84 147.487 195.262C147.487 194.684 147.3 194.242 146.926 193.936C146.552 193.63 146.003 193.477 145.277 193.477H142.149V197.132ZM154.083 204.17C153.516 204.17 153.001 204.057 152.536 203.83C152.071 203.603 151.697 203.297 151.414 202.912C151.131 202.527 150.989 202.09 150.989 201.603C150.989 200.821 151.306 200.198 151.941 199.733C152.576 199.268 153.403 198.962 154.423 198.815L156.956 198.458V197.965C156.956 197.421 156.797 196.996 156.48 196.69C156.174 196.384 155.67 196.231 154.967 196.231C154.457 196.231 154.043 196.333 153.726 196.537C153.42 196.741 153.205 197.002 153.08 197.319C153.012 197.489 152.893 197.574 152.723 197.574H151.958C151.833 197.574 151.737 197.54 151.669 197.472C151.612 197.393 151.584 197.302 151.584 197.2C151.584 197.03 151.646 196.82 151.771 196.571C151.907 196.322 152.111 196.078 152.383 195.84C152.655 195.602 153.001 195.404 153.42 195.245C153.851 195.075 154.372 194.99 154.984 194.99C155.664 194.99 156.236 195.081 156.701 195.262C157.166 195.432 157.528 195.664 157.789 195.959C158.061 196.254 158.254 196.588 158.367 196.962C158.492 197.336 158.554 197.716 158.554 198.101V203.609C158.554 203.722 158.514 203.819 158.435 203.898C158.367 203.966 158.276 204 158.163 204H157.381C157.256 204 157.16 203.966 157.092 203.898C157.024 203.819 156.99 203.722 156.99 203.609V202.878C156.843 203.082 156.644 203.286 156.395 203.49C156.146 203.683 155.834 203.847 155.46 203.983C155.086 204.108 154.627 204.17 154.083 204.17ZM154.44 202.895C154.905 202.895 155.33 202.799 155.715 202.606C156.1 202.402 156.401 202.09 156.616 201.671C156.843 201.252 156.956 200.725 156.956 200.09V199.614L154.984 199.903C154.179 200.016 153.573 200.209 153.165 200.481C152.757 200.742 152.553 201.076 152.553 201.484C152.553 201.801 152.644 202.068 152.825 202.283C153.018 202.487 153.256 202.64 153.539 202.742C153.834 202.844 154.134 202.895 154.44 202.895ZM161.389 204C161.275 204 161.179 203.966 161.1 203.898C161.032 203.819 160.998 203.722 160.998 203.609V195.551C160.998 195.438 161.032 195.347 161.1 195.279C161.179 195.2 161.275 195.16 161.389 195.16H162.188C162.301 195.16 162.392 195.2 162.46 195.279C162.539 195.347 162.579 195.438 162.579 195.551V196.299C162.873 195.914 163.242 195.602 163.684 195.364C164.137 195.115 164.715 194.99 165.418 194.99C166.154 194.99 166.778 195.154 167.288 195.483C167.809 195.8 168.2 196.248 168.461 196.826C168.721 197.393 168.852 198.056 168.852 198.815V203.609C168.852 203.722 168.818 203.819 168.75 203.898C168.682 203.966 168.591 204 168.478 204H167.628C167.514 204 167.418 203.966 167.339 203.898C167.271 203.819 167.237 203.722 167.237 203.609V198.9C167.237 198.107 167.044 197.489 166.659 197.047C166.273 196.594 165.707 196.367 164.959 196.367C164.256 196.367 163.689 196.594 163.259 197.047C162.839 197.489 162.63 198.107 162.63 198.9V203.609C162.63 203.722 162.59 203.819 162.511 203.898C162.443 203.966 162.352 204 162.239 204H161.389ZM171.698 204C171.585 204 171.489 203.966 171.409 203.898C171.341 203.819 171.307 203.722 171.307 203.609V195.551C171.307 195.438 171.341 195.347 171.409 195.279C171.489 195.2 171.585 195.16 171.698 195.16H172.497C172.611 195.16 172.701 195.2 172.769 195.279C172.849 195.347 172.888 195.438 172.888 195.551V196.299C173.183 195.914 173.551 195.602 173.993 195.364C174.447 195.115 175.025 194.99 175.727 194.99C176.464 194.99 177.087 195.154 177.597 195.483C178.119 195.8 178.51 196.248 178.77 196.826C179.031 197.393 179.161 198.056 179.161 198.815V203.609C179.161 203.722 179.127 203.819 179.059 203.898C178.991 203.966 178.901 204 178.787 204H177.937C177.824 204 177.728 203.966 177.648 203.898C177.58 203.819 177.546 203.722 177.546 203.609V198.9C177.546 198.107 177.354 197.489 176.968 197.047C176.583 196.594 176.016 196.367 175.268 196.367C174.566 196.367 173.999 196.594 173.568 197.047C173.149 197.489 172.939 198.107 172.939 198.9V203.609C172.939 203.722 172.9 203.819 172.82 203.898C172.752 203.966 172.662 204 172.548 204H171.698ZM185.136 204.17C183.969 204.17 183.039 203.813 182.348 203.099C181.657 202.374 181.277 201.388 181.209 200.141C181.198 199.994 181.192 199.807 181.192 199.58C181.192 199.342 181.198 199.149 181.209 199.002C181.254 198.197 181.441 197.495 181.77 196.894C182.099 196.282 182.546 195.812 183.113 195.483C183.691 195.154 184.365 194.99 185.136 194.99C185.997 194.99 186.717 195.171 187.295 195.534C187.884 195.897 188.332 196.412 188.638 197.081C188.944 197.75 189.097 198.532 189.097 199.427V199.716C189.097 199.841 189.057 199.937 188.978 200.005C188.91 200.073 188.819 200.107 188.706 200.107H182.824C182.824 200.118 182.824 200.141 182.824 200.175C182.824 200.209 182.824 200.237 182.824 200.26C182.847 200.725 182.949 201.161 183.13 201.569C183.311 201.966 183.572 202.289 183.912 202.538C184.252 202.787 184.66 202.912 185.136 202.912C185.544 202.912 185.884 202.85 186.156 202.725C186.428 202.6 186.649 202.464 186.819 202.317C186.989 202.158 187.102 202.039 187.159 201.96C187.261 201.813 187.34 201.728 187.397 201.705C187.454 201.671 187.544 201.654 187.669 201.654H188.485C188.598 201.654 188.689 201.688 188.757 201.756C188.836 201.813 188.87 201.898 188.859 202.011C188.848 202.181 188.757 202.391 188.587 202.64C188.417 202.878 188.173 203.116 187.856 203.354C187.539 203.592 187.153 203.79 186.7 203.949C186.247 204.096 185.725 204.17 185.136 204.17ZM182.824 198.934H187.482V198.883C187.482 198.373 187.386 197.92 187.193 197.523C187.012 197.126 186.745 196.815 186.394 196.588C186.043 196.35 185.623 196.231 185.136 196.231C184.649 196.231 184.229 196.35 183.878 196.588C183.538 196.815 183.277 197.126 183.096 197.523C182.915 197.92 182.824 198.373 182.824 198.883V198.934ZM191.521 204C191.407 204 191.311 203.966 191.232 203.898C191.164 203.819 191.13 203.722 191.13 203.609V195.568C191.13 195.455 191.164 195.358 191.232 195.279C191.311 195.2 191.407 195.16 191.521 195.16H192.303C192.416 195.16 192.512 195.2 192.592 195.279C192.671 195.358 192.711 195.455 192.711 195.568V196.316C192.937 195.931 193.249 195.642 193.646 195.449C194.042 195.256 194.518 195.16 195.074 195.16H195.754C195.867 195.16 195.958 195.2 196.026 195.279C196.094 195.347 196.128 195.438 196.128 195.551V196.248C196.128 196.361 196.094 196.452 196.026 196.52C195.958 196.588 195.867 196.622 195.754 196.622H194.734C194.122 196.622 193.64 196.803 193.289 197.166C192.937 197.517 192.762 197.999 192.762 198.611V203.609C192.762 203.722 192.722 203.819 192.643 203.898C192.563 203.966 192.467 204 192.354 204H191.521ZM200.648 204.17C200.013 204.17 199.469 204.091 199.016 203.932C198.562 203.773 198.194 203.581 197.911 203.354C197.627 203.127 197.412 202.901 197.265 202.674C197.129 202.447 197.055 202.266 197.044 202.13C197.032 202.005 197.072 201.909 197.163 201.841C197.253 201.773 197.344 201.739 197.435 201.739H198.183C198.251 201.739 198.302 201.75 198.336 201.773C198.381 201.784 198.438 201.83 198.506 201.909C198.653 202.068 198.817 202.226 198.999 202.385C199.18 202.544 199.401 202.674 199.662 202.776C199.934 202.878 200.268 202.929 200.665 202.929C201.243 202.929 201.719 202.821 202.093 202.606C202.467 202.379 202.654 202.051 202.654 201.62C202.654 201.337 202.574 201.11 202.416 200.94C202.268 200.77 201.996 200.617 201.6 200.481C201.214 200.345 200.682 200.203 200.002 200.056C199.322 199.897 198.783 199.705 198.387 199.478C197.99 199.24 197.707 198.962 197.537 198.645C197.367 198.316 197.282 197.948 197.282 197.54C197.282 197.121 197.406 196.718 197.656 196.333C197.905 195.936 198.268 195.613 198.744 195.364C199.231 195.115 199.837 194.99 200.563 194.99C201.152 194.99 201.656 195.064 202.076 195.211C202.495 195.358 202.841 195.545 203.113 195.772C203.385 195.987 203.589 196.203 203.725 196.418C203.861 196.633 203.934 196.815 203.946 196.962C203.957 197.075 203.923 197.172 203.844 197.251C203.764 197.319 203.674 197.353 203.572 197.353H202.858C202.778 197.353 202.71 197.336 202.654 197.302C202.608 197.268 202.563 197.228 202.518 197.183C202.404 197.036 202.268 196.888 202.11 196.741C201.962 196.594 201.764 196.475 201.515 196.384C201.277 196.282 200.959 196.231 200.563 196.231C199.996 196.231 199.571 196.35 199.288 196.588C199.004 196.826 198.863 197.126 198.863 197.489C198.863 197.704 198.925 197.897 199.05 198.067C199.174 198.237 199.412 198.39 199.764 198.526C200.115 198.662 200.636 198.809 201.328 198.968C202.076 199.115 202.665 199.314 203.096 199.563C203.526 199.812 203.832 200.101 204.014 200.43C204.195 200.759 204.286 201.138 204.286 201.569C204.286 202.045 204.144 202.481 203.861 202.878C203.589 203.275 203.181 203.592 202.637 203.83C202.104 204.057 201.441 204.17 200.648 204.17Z" fill="#7C7C9B"/>
</g>
<defs>
<clipPath id="clip0_72_8372">
<rect width="343" height="397" rx="20" fill="white"/>
</clipPath>
</defs>
</svg>
