<svg width="21" height="20" viewBox="0 0 21 20" fill="none" xmlns="http://www.w3.org/2000/svg">
<path fill-rule="evenodd" clip-rule="evenodd" d="M10.5003 1.04175C10.8455 1.04175 11.1253 1.32157 11.1253 1.66675V10.8105L12.5258 9.17667C12.7504 8.91459 13.145 8.88424 13.4071 9.10888C13.6692 9.33352 13.6995 9.72808 13.4749 9.99016L10.9749 12.9068C10.8561 13.0454 10.6828 13.1251 10.5003 13.1251C10.3179 13.1251 10.1445 13.0454 10.0258 12.9068L7.52579 9.99016C7.30115 9.72808 7.3315 9.33352 7.59358 9.10888C7.85566 8.88424 8.25022 8.91459 8.47486 9.17667L9.87533 10.8105V1.66675C9.87533 1.32157 10.1551 1.04175 10.5003 1.04175ZM6.33018 6.87672C6.67535 6.8748 6.95673 7.15306 6.95865 7.49823C6.96057 7.8434 6.68231 8.12478 6.33714 8.1267C5.42589 8.13177 4.77999 8.15544 4.28978 8.24548C3.81744 8.33224 3.54405 8.47156 3.34117 8.67444C3.11053 8.90507 2.96016 9.22888 2.87795 9.84036C2.79332 10.4698 2.79199 11.3041 2.79199 12.5003V13.3336C2.79199 14.5298 2.79332 15.364 2.87795 15.9935C2.96016 16.605 3.11053 16.9288 3.34117 17.1594C3.5718 17.3901 3.89561 17.5404 4.50709 17.6226C5.13655 17.7073 5.97081 17.7086 7.16699 17.7086H13.8337C15.0298 17.7086 15.8641 17.7073 16.4936 17.6226C17.105 17.5404 17.4289 17.3901 17.6595 17.1594C17.8901 16.9288 18.0405 16.605 18.1227 15.9935C18.2073 15.364 18.2087 14.5298 18.2087 13.3336V12.5003C18.2087 11.3041 18.2073 10.4698 18.1227 9.84036C18.0405 9.22888 17.8901 8.90507 17.6595 8.67444C17.4566 8.47156 17.1832 8.33224 16.7109 8.24548C16.2207 8.15544 15.5748 8.13177 14.6635 8.1267C14.3183 8.12478 14.0401 7.8434 14.042 7.49823C14.0439 7.15306 14.3253 6.8748 14.6705 6.87672C15.5717 6.88174 16.3229 6.9033 16.9367 7.01605C17.5684 7.13208 18.1059 7.35311 18.5434 7.79055C19.045 8.29215 19.2607 8.92371 19.3616 9.6738C19.4587 10.3963 19.4587 11.3149 19.4587 12.4545V13.3793C19.4587 14.519 19.4587 15.4376 19.3616 16.1601C19.2607 16.9101 19.045 17.5417 18.5434 18.0433C18.0418 18.5449 17.4102 18.7606 16.6601 18.8615C15.9376 18.9586 15.019 18.9586 13.8794 18.9586H7.12127C5.98161 18.9586 5.06301 18.9586 4.34053 18.8615C3.59044 18.7606 2.95888 18.5449 2.45728 18.0433C1.95569 17.5417 1.73994 16.9101 1.6391 16.1601C1.54196 15.4376 1.54198 14.519 1.54199 13.3793V12.4545C1.54198 11.3149 1.54196 10.3963 1.6391 9.6738C1.73994 8.92371 1.95569 8.29215 2.45728 7.79055C2.89473 7.35311 3.43229 7.13208 4.06395 7.01605C4.67775 6.9033 5.42891 6.88174 6.33018 6.87672Z" fill="#0A0A19"/>
</svg>
