<svg width="14" height="14" viewBox="0 0 14 14" fill="none" xmlns="http://www.w3.org/2000/svg">
<rect width="14" height="14" rx="7" fill="#333333" fill-opacity="0.83"/>
<path fill-rule="evenodd" clip-rule="evenodd" d="M7.00033 3.41675C7.1384 3.41675 7.25033 3.52868 7.25033 3.66675V7.32427L7.81051 6.67072C7.90037 6.56589 8.05819 6.55375 8.16302 6.6436C8.26786 6.73346 8.28 6.89128 8.19014 6.99611L7.19014 8.16278C7.14264 8.21819 7.07331 8.25008 7.00033 8.25008C6.92734 8.25008 6.85801 8.21819 6.81051 8.16278L5.81051 6.99611C5.72066 6.89128 5.7328 6.73346 5.83763 6.6436C5.94246 6.55375 6.10028 6.56589 6.19014 6.67072L6.75033 7.32427V3.66675C6.75033 3.52868 6.86225 3.41675 7.00033 3.41675ZM5.33227 5.75074C5.47034 5.74997 5.58289 5.86127 5.58366 5.99934C5.58442 6.13741 5.47312 6.24996 5.33505 6.25073C4.97055 6.25276 4.71219 6.26222 4.51611 6.29824C4.32717 6.33295 4.21781 6.38867 4.13666 6.46982C4.04441 6.56208 3.98426 6.6916 3.95137 6.93619C3.91752 7.18798 3.91699 7.52168 3.91699 8.00015V8.33349C3.91699 8.81196 3.91752 9.14566 3.95137 9.39745C3.98426 9.64204 4.04441 9.77156 4.13666 9.86382C4.22892 9.95607 4.35844 10.0162 4.60303 10.0491C4.85482 10.083 5.18852 10.0835 5.66699 10.0835H8.33366C8.81213 10.0835 9.14584 10.083 9.39762 10.0491C9.64221 10.0162 9.77174 9.95607 9.86399 9.86382C9.95624 9.77156 10.0164 9.64204 10.0493 9.39745C10.0831 9.14566 10.0837 8.81196 10.0837 8.33349V8.00015C10.0837 7.52168 10.0831 7.18798 10.0493 6.93619C10.0164 6.6916 9.95624 6.56208 9.86399 6.46982C9.78284 6.38867 9.67348 6.33295 9.48454 6.29824C9.28846 6.26222 9.0301 6.25276 8.6656 6.25073C8.52753 6.24996 8.41623 6.13741 8.417 5.99934C8.41777 5.86127 8.53032 5.74997 8.66838 5.75074C9.02889 5.75274 9.32936 5.76137 9.57488 5.80647C9.82754 5.85288 10.0426 5.94129 10.2175 6.11627C10.4182 6.31691 10.5045 6.56953 10.5448 6.86957C10.5837 7.15856 10.5837 7.526 10.5837 7.98186V8.35178C10.5837 8.80764 10.5837 9.17508 10.5448 9.46407C10.5045 9.76411 10.4182 10.0167 10.2175 10.2174C10.0169 10.418 9.76428 10.5043 9.46424 10.5446C9.17525 10.5835 8.80781 10.5835 8.35195 10.5835H5.6487C5.19284 10.5835 4.8254 10.5835 4.53641 10.5446C4.23637 10.5043 3.98375 10.418 3.78311 10.2174C3.58247 10.0167 3.49617 9.76411 3.45583 9.46407C3.41698 9.17508 3.41699 8.80764 3.41699 8.35178V7.98186C3.41699 7.526 3.41698 7.15856 3.45583 6.86957C3.49617 6.56953 3.58247 6.31691 3.78311 6.11627C3.95809 5.94129 4.17311 5.85288 4.42578 5.80647C4.6713 5.76137 4.97176 5.75274 5.33227 5.75074Z" fill="white"/>
</svg>
