<svg width="22" height="17" viewBox="0 0 22 17" fill="none" xmlns="http://www.w3.org/2000/svg">
<path fill-rule="evenodd" clip-rule="evenodd" d="M10.448 0.750001H11.552C12.4505 0.749973 13.1997 0.74995 13.7945 0.829915C14.4223 0.91432 14.9891 1.09999 15.4445 1.55546C15.9 2.01093 16.0857 2.57773 16.1701 3.20552C16.2501 3.80029 16.25 4.54949 16.25 5.44795V11.552C16.25 12.4505 16.2501 13.1997 16.1701 13.7945C16.0857 14.4223 15.9 14.9891 15.4445 15.4445C14.9891 15.9 14.4223 16.0857 13.7945 16.1701C13.1997 16.2501 12.4505 16.25 11.552 16.25H10.448C9.54954 16.25 8.8003 16.2501 8.20552 16.1701C7.57773 16.0857 7.01093 15.9 6.55546 15.4445C6.09999 14.9891 5.91432 14.4223 5.82991 13.7945C5.74995 13.1997 5.74997 12.4505 5.75 11.552L5.75 5.448C5.74997 4.54952 5.74995 3.80031 5.82991 3.20552C5.91432 2.57773 6.09999 2.01093 6.55546 1.55546C7.01093 1.09999 7.57773 0.914319 8.20552 0.829915C8.8003 0.749949 9.54954 0.749973 10.448 0.750001ZM8.40539 2.31654C7.94393 2.37858 7.74644 2.4858 7.61612 2.61612C7.4858 2.74644 7.37858 2.94393 7.31654 3.4054C7.2516 3.88843 7.25 4.53599 7.25 5.5V11.5C7.25 12.464 7.2516 13.1116 7.31654 13.5946C7.37858 14.0561 7.4858 14.2536 7.61612 14.3839C7.74644 14.5142 7.94393 14.6214 8.40539 14.6835C8.88843 14.7484 9.53599 14.75 10.5 14.75H11.5C12.464 14.75 13.1116 14.7484 13.5946 14.6835C14.0561 14.6214 14.2536 14.5142 14.3839 14.3839C14.5142 14.2536 14.6214 14.0561 14.6835 13.5946C14.7484 13.1116 14.75 12.464 14.75 11.5V5.5C14.75 4.53599 14.7484 3.88843 14.6835 3.4054C14.6214 2.94393 14.5142 2.74644 14.3839 2.61612C14.2536 2.4858 14.0561 2.37858 13.5946 2.31654C13.1116 2.2516 12.464 2.25 11.5 2.25H10.5C9.53599 2.25 8.88843 2.2516 8.40539 2.31654Z" fill="url(#paint0_linear_886_3355)"/>
<path d="M20.5 2.25C19.5335 2.25 18.75 3.0335 18.75 4V13C18.75 13.9665 19.5335 14.75 20.5 14.75H21C21.4142 14.75 21.75 15.0858 21.75 15.5C21.75 15.9142 21.4142 16.25 21 16.25H20.5C18.7051 16.25 17.25 14.7949 17.25 13V4C17.25 2.20508 18.7051 0.750001 20.5 0.750001H21C21.4142 0.750001 21.75 1.08579 21.75 1.5C21.75 1.91421 21.4142 2.25 21 2.25H20.5Z" fill="url(#paint1_linear_886_3355)"/>
<path d="M1 0.750001C0.585787 0.750001 0.25 1.08579 0.25 1.5C0.25 1.91421 0.585787 2.25 1 2.25H1.5C2.4665 2.25 3.25 3.0335 3.25 4L3.25 13C3.25 13.9665 2.4665 14.75 1.5 14.75H1C0.585786 14.75 0.25 15.0858 0.25 15.5C0.25 15.9142 0.585786 16.25 1 16.25H1.5C3.29493 16.25 4.75 14.7949 4.75 13L4.75 4C4.75 2.20508 3.29493 0.750001 1.5 0.750001H1Z" fill="url(#paint2_linear_886_3355)"/>
<defs>
<linearGradient id="paint0_linear_886_3355" x1="11" y1="0.75" x2="11" y2="16.25" gradientUnits="userSpaceOnUse">
<stop stop-color="#FF710A"/>
<stop offset="1" stop-color="#FF5833"/>
</linearGradient>
<linearGradient id="paint1_linear_886_3355" x1="11" y1="0.75" x2="11" y2="16.25" gradientUnits="userSpaceOnUse">
<stop stop-color="#FF710A"/>
<stop offset="1" stop-color="#FF5833"/>
</linearGradient>
<linearGradient id="paint2_linear_886_3355" x1="11" y1="0.75" x2="11" y2="16.25" gradientUnits="userSpaceOnUse">
<stop stop-color="#FF710A"/>
<stop offset="1" stop-color="#FF5833"/>
</linearGradient>
</defs>
</svg>
