<svg width="62" height="26" viewBox="0 0 62 26" fill="none" xmlns="http://www.w3.org/2000/svg">
<rect width="62" height="26" rx="13" fill="black"/>
<path fill-rule="evenodd" clip-rule="evenodd" d="M18.0001 6.5C16.9876 6.5 16.1667 7.32081 16.1667 8.33333C16.1667 8.85552 16.3851 9.32624 16.7346 9.65978C16.6917 9.73585 16.6474 9.81529 16.6016 9.89752L15.4034 12.0458C15.285 12.2582 15.2145 12.3833 15.1551 12.4679C15.1365 12.4944 15.1233 12.5103 15.1153 12.5192L15.1142 12.5194C15.1041 12.513 15.0868 12.5012 15.0613 12.4805C14.9808 12.4154 14.8784 12.3143 14.7059 12.1425L14.6533 12.09C14.4405 11.878 14.2471 11.6853 14.0712 11.5276C14.1329 11.3634 14.1667 11.1855 14.1667 11C14.1667 10.1716 13.4952 9.5 12.6667 9.5C11.8383 9.5 11.1667 10.1716 11.1667 11C11.1667 11.6553 11.587 12.2125 12.1727 12.4167C12.1747 12.4548 12.1772 12.4933 12.1799 12.532C12.1953 12.7485 12.2231 13.0077 12.255 13.3042L12.3781 14.4489C12.3981 14.6344 12.4172 14.8193 12.4362 15.0021C12.5109 15.7237 12.5823 16.414 12.6889 16.996C12.7563 17.3639 12.8413 17.7106 12.959 18.0115C13.0757 18.3098 13.2367 18.595 13.4747 18.808C13.8946 19.1839 14.401 19.348 15.0055 19.4254C15.5888 19.5 16.3242 19.5 17.2402 19.5H18.7599C19.6759 19.5 20.4114 19.5 20.9946 19.4254C21.5992 19.348 22.1056 19.1839 22.5255 18.808C22.7635 18.595 22.9245 18.3098 23.0412 18.0115C23.1589 17.7106 23.2439 17.3639 23.3113 16.996C23.4179 16.414 23.4893 15.7239 23.564 15.0022C23.5829 14.8195 23.6021 14.6344 23.622 14.4489L23.7451 13.3043C23.777 13.0078 23.8049 12.7486 23.8202 12.532C23.823 12.4933 23.8254 12.4548 23.8274 12.4167C24.4131 12.2125 24.8334 11.6553 24.8334 11C24.8334 10.1716 24.1618 9.5 23.3334 9.5C22.505 9.5 21.8334 10.1716 21.8334 11C21.8334 11.1855 21.8672 11.3634 21.929 11.5276C21.753 11.6853 21.5596 11.878 21.3469 12.09L21.2942 12.1425C21.1217 12.3143 21.0194 12.4154 20.9389 12.4805C20.9133 12.5012 20.8961 12.513 20.886 12.5194L20.8848 12.5192C20.8769 12.5103 20.8637 12.4944 20.8451 12.4679C20.7857 12.3833 20.7152 12.2582 20.5967 12.0458L19.3986 9.89746C19.3527 9.81525 19.3084 9.73583 19.2655 9.65978C19.615 9.32624 19.8334 8.85552 19.8334 8.33333C19.8334 7.32081 19.0126 6.5 18.0001 6.5ZM17.1667 8.33333C17.1667 7.8731 17.5398 7.5 18.0001 7.5C18.4603 7.5 18.8334 7.8731 18.8334 8.33333C18.8334 8.65669 18.6493 8.93793 18.378 9.07638C18.2651 9.13397 18.1371 9.16667 18.0001 9.16667C17.863 9.16667 17.7351 9.13397 17.6222 9.07638C17.3508 8.93793 17.1667 8.65669 17.1667 8.33333ZM17.4698 10.3938C17.5239 10.2969 17.5733 10.2082 17.6193 10.127C17.7423 10.153 17.8697 10.1667 18.0001 10.1667C18.1304 10.1667 18.2579 10.153 18.3809 10.127C18.4268 10.2082 18.4763 10.2969 18.5304 10.3938L19.7345 12.5527C19.838 12.7385 19.9338 12.9102 20.0267 13.0425C20.1257 13.1836 20.2608 13.3392 20.4678 13.4304C20.6466 13.5091 20.8439 13.5366 21.0374 13.5099C21.2613 13.4789 21.4339 13.3664 21.5679 13.258C21.6936 13.1562 21.833 13.0174 21.9838 12.8671L21.9999 12.851C22.2502 12.6017 22.4332 12.421 22.573 12.2931C22.6529 12.3402 22.7375 12.3801 22.826 12.4119C22.825 12.4278 22.8239 12.4443 22.8227 12.4613C22.8088 12.6576 22.7829 12.8991 22.75 13.2055L22.6277 14.3419C22.6064 14.5402 22.5864 14.7336 22.5669 14.9215C22.5205 15.3686 22.4774 15.7854 22.4274 16.1667H13.5728C13.5228 15.7854 13.4796 15.3686 13.4333 14.9215C13.4138 14.7336 13.3937 14.5402 13.3724 14.3419L13.2502 13.2055C13.2172 12.8991 13.1913 12.6576 13.1774 12.4613C13.1762 12.4443 13.1751 12.4278 13.1741 12.4119C13.2627 12.3801 13.3473 12.3402 13.4272 12.2931C13.567 12.421 13.75 12.6017 14.0002 12.851L14.0163 12.8671C14.1672 13.0174 14.3066 13.1562 14.4323 13.258C14.5663 13.3664 14.7389 13.4789 14.9627 13.5099C15.1563 13.5366 15.3535 13.5091 15.5324 13.4304C15.7393 13.3392 15.8744 13.1836 15.9735 13.0425C16.0664 12.9102 16.1621 12.7385 16.2657 12.5528L17.4698 10.3938ZM13.7454 17.1667C13.789 17.3506 13.8369 17.5108 13.8903 17.6472C13.9761 17.8667 14.0642 17.9936 14.1416 18.0629C14.3524 18.2516 14.634 18.3697 15.1325 18.4335C15.6449 18.499 16.3162 18.5 17.2748 18.5H18.7254C19.6839 18.5 20.3553 18.499 20.8677 18.4335C21.3661 18.3697 21.6477 18.2516 21.8586 18.0629C21.9359 17.9936 22.024 17.8667 22.1099 17.6472C22.1633 17.5108 22.2112 17.3506 22.2547 17.1667H13.7454ZM12.1667 11C12.1667 10.7239 12.3906 10.5 12.6667 10.5C12.9429 10.5 13.1667 10.7239 13.1667 11C13.1667 11.1253 13.1213 11.2387 13.0454 11.3265C12.9542 11.4322 12.8214 11.4982 12.6728 11.5L12.6667 11.5C12.3906 11.5 12.1667 11.2761 12.1667 11ZM22.8334 11C22.8334 10.7239 23.0573 10.5 23.3334 10.5C23.6096 10.5 23.8334 10.7239 23.8334 11C23.8334 11.2761 23.6096 11.5 23.3334 11.5L23.3274 11.5C23.1788 11.4982 23.046 11.4322 22.9548 11.3265C22.8788 11.2387 22.8334 11.1253 22.8334 11Z" fill="white"/>
<path d="M30.9384 18C30.8358 18 30.7564 17.972 30.7004 17.916C30.6444 17.8507 30.6164 17.7713 30.6164 17.678V8.536C30.6164 8.43333 30.6444 8.354 30.7004 8.298C30.7564 8.23267 30.8358 8.2 30.9384 8.2H34.4944C35.1851 8.2 35.7824 8.312 36.2864 8.536C36.7998 8.76 37.1964 9.096 37.4764 9.544C37.7564 9.98267 37.8964 10.5333 37.8964 11.196C37.8964 11.8587 37.7564 12.4093 37.4764 12.848C37.1964 13.2867 36.7998 13.618 36.2864 13.842C35.7824 14.066 35.1851 14.178 34.4944 14.178H32.0164V17.678C32.0164 17.7713 31.9838 17.8507 31.9184 17.916C31.8624 17.972 31.7831 18 31.6804 18H30.9384ZM32.0024 13.002H34.4244C35.1151 13.002 35.6331 12.848 35.9784 12.54C36.3238 12.232 36.4964 11.784 36.4964 11.196C36.4964 10.6173 36.3284 10.1693 35.9924 9.852C35.6564 9.53467 35.1338 9.376 34.4244 9.376H32.0024V13.002ZM39.7389 18C39.6455 18 39.5662 17.972 39.5009 17.916C39.4449 17.8507 39.4169 17.7713 39.4169 17.678V11.056C39.4169 10.9627 39.4449 10.8833 39.5009 10.818C39.5662 10.7527 39.6455 10.72 39.7389 10.72H40.3829C40.4762 10.72 40.5555 10.7527 40.6209 10.818C40.6862 10.8833 40.7189 10.9627 40.7189 11.056V11.672C40.9055 11.3547 41.1622 11.1167 41.4889 10.958C41.8155 10.7993 42.2075 10.72 42.6649 10.72H43.2249C43.3182 10.72 43.3929 10.7527 43.4489 10.818C43.5049 10.874 43.5329 10.9487 43.5329 11.042V11.616C43.5329 11.7093 43.5049 11.784 43.4489 11.84C43.3929 11.896 43.3182 11.924 43.2249 11.924H42.3849C41.8809 11.924 41.4842 12.0733 41.1949 12.372C40.9055 12.6613 40.7609 13.058 40.7609 13.562V17.678C40.7609 17.7713 40.7282 17.8507 40.6629 17.916C40.5975 17.972 40.5182 18 40.4249 18H39.7389ZM47.5805 18.14C46.8712 18.14 46.2785 18.0047 45.8025 17.734C45.3265 17.4633 44.9625 17.09 44.7105 16.614C44.4585 16.1287 44.3185 15.578 44.2905 14.962C44.2812 14.8033 44.2765 14.6027 44.2765 14.36C44.2765 14.108 44.2812 13.9073 44.2905 13.758C44.3185 13.1327 44.4585 12.582 44.7105 12.106C44.9718 11.63 45.3405 11.2567 45.8165 10.986C46.2925 10.7153 46.8805 10.58 47.5805 10.58C48.2805 10.58 48.8685 10.7153 49.3445 10.986C49.8205 11.2567 50.1845 11.63 50.4365 12.106C50.6978 12.582 50.8425 13.1327 50.8705 13.758C50.8798 13.9073 50.8845 14.108 50.8845 14.36C50.8845 14.6027 50.8798 14.8033 50.8705 14.962C50.8425 15.578 50.7025 16.1287 50.4505 16.614C50.1985 17.09 49.8345 17.4633 49.3585 17.734C48.8825 18.0047 48.2898 18.14 47.5805 18.14ZM47.5805 17.062C48.1592 17.062 48.6212 16.88 48.9665 16.516C49.3118 16.1427 49.4985 15.6013 49.5265 14.892C49.5358 14.752 49.5405 14.5747 49.5405 14.36C49.5405 14.1453 49.5358 13.968 49.5265 13.828C49.4985 13.1187 49.3118 12.582 48.9665 12.218C48.6212 11.8447 48.1592 11.658 47.5805 11.658C47.0018 11.658 46.5352 11.8447 46.1805 12.218C45.8352 12.582 45.6532 13.1187 45.6345 13.828C45.6252 13.968 45.6205 14.1453 45.6205 14.36C45.6205 14.5747 45.6252 14.752 45.6345 14.892C45.6532 15.6013 45.8352 16.1427 46.1805 16.516C46.5352 16.88 47.0018 17.062 47.5805 17.062Z" fill="white"/>
</svg>
