<svg width="21" height="20" viewBox="0 0 21 20" fill="none" xmlns="http://www.w3.org/2000/svg">
<path d="M8.4165 16.5833C8.83072 16.5833 9.1665 16.2475 9.1665 15.8333C9.1665 15.4191 8.83072 15.0833 8.4165 15.0833V16.5833ZM9.6665 4.16667V4.91667C9.96985 4.91667 10.2433 4.73393 10.3594 4.45368C10.4755 4.17342 10.4113 3.85083 10.1968 3.63634L9.6665 4.16667ZM8.53017 1.96967C8.23727 1.67678 7.7624 1.67678 7.46951 1.96967C7.17661 2.26256 7.17661 2.73744 7.46951 3.03033L8.53017 1.96967ZM8.4165 15.0833H8.00007V16.5833H8.4165V15.0833ZM7.99984 4.91667H9.6665V3.41667H7.99984V4.91667ZM10.1968 3.63634L8.53017 1.96967L7.46951 3.03033L9.13617 4.697L10.1968 3.63634ZM1.4165 10C1.4165 13.6359 4.36423 16.5833 8.00007 16.5833V15.0833C5.19258 15.0833 2.9165 12.8074 2.9165 10H1.4165ZM2.9165 10C2.9165 7.19255 5.19239 4.91667 7.99984 4.91667V3.41667C4.36396 3.41667 1.4165 6.36413 1.4165 10H2.9165Z" fill="#01012A"/>
<path d="M11.3335 15.8337V15.0837C11.0301 15.0837 10.7567 15.2664 10.6406 15.5466C10.5245 15.8269 10.5887 16.1495 10.8032 16.364L11.3335 15.8337ZM12.4698 18.0307C12.7627 18.3235 13.2376 18.3235 13.5305 18.0307C13.8234 17.7378 13.8234 17.2629 13.5305 16.97L12.4698 18.0307ZM12.5835 3.41699C12.1693 3.41699 11.8335 3.75278 11.8335 4.16699C11.8335 4.58121 12.1693 4.91699 12.5835 4.91699V3.41699ZM13.0002 15.0837H11.3335V16.5837H13.0002V15.0837ZM10.8032 16.364L12.4698 18.0307L13.5305 16.97L11.8638 15.3033L10.8032 16.364ZM12.5835 4.91699H13.0002V3.41699H12.5835V4.91699ZM18.0835 10.0003C18.0835 12.8078 15.8076 15.0837 13.0002 15.0837V16.5837C16.636 16.5837 19.5835 13.6362 19.5835 10.0003H18.0835ZM19.5835 10.0003C19.5835 6.36445 16.636 3.41699 13.0002 3.41699V4.91699C15.8076 4.91699 18.0835 7.19288 18.0835 10.0003H19.5835Z" fill="#01012A"/>
</svg>
