<svg width="20" height="20" viewBox="0 0 20 20" fill="none" xmlns="http://www.w3.org/2000/svg">
<path d="M11.6668 5.41667L7.50016 8.33333M11.6668 14.5833L7.50016 11.6667M7.50016 10C7.50016 11.1506 6.56742 12.0833 5.41683 12.0833C4.26624 12.0833 3.3335 11.1506 3.3335 10C3.3335 8.84942 4.26624 7.91667 5.41683 7.91667C6.56742 7.91667 7.50016 8.84942 7.50016 10ZM15.8335 15.4167C15.8335 16.5672 14.9007 17.5 13.7502 17.5C12.5996 17.5 11.6668 16.5672 11.6668 15.4167C11.6668 14.2661 12.5996 13.3333 13.7502 13.3333C14.9007 13.3333 15.8335 14.2661 15.8335 15.4167ZM15.8335 4.58333C15.8335 5.73392 14.9007 6.66667 13.7502 6.66667C12.5996 6.66667 11.6668 5.73392 11.6668 4.58333C11.6668 3.43274 12.5996 2.5 13.7502 2.5C14.9007 2.5 15.8335 3.43274 15.8335 4.58333Z" stroke="white" stroke-width="1.5" stroke-linecap="round"/>
</svg>
