<svg width="20" height="20" viewBox="0 0 20 20" fill="none" xmlns="http://www.w3.org/2000/svg">
<path d="M9.99986 2.29199C9.18445 2.29199 8.48909 2.81285 8.23139 3.54194C8.11636 3.86739 7.75929 4.03796 7.43384 3.92293C7.10839 3.8079 6.93781 3.45083 7.05284 3.12538C7.48154 1.91248 8.63824 1.04199 9.99986 1.04199C11.3615 1.04199 12.5182 1.91248 12.9469 3.12538C13.0619 3.45083 12.8913 3.8079 12.5659 3.92293C12.2404 4.03796 11.8834 3.86739 11.7683 3.54194C11.5106 2.81285 10.8153 2.29199 9.99986 2.29199Z" fill="#FF453A"/>
<path d="M2.2915 5.00033C2.2915 4.65515 2.57133 4.37533 2.9165 4.37533H17.0832C17.4284 4.37533 17.7082 4.65515 17.7082 5.00033C17.7082 5.3455 17.4284 5.62533 17.0832 5.62533H2.9165C2.57133 5.62533 2.2915 5.3455 2.2915 5.00033Z" fill="#FF453A"/>
<path d="M4.92907 7.04208C4.90611 6.69767 4.6083 6.43708 4.26388 6.46004C3.91947 6.483 3.65888 6.78082 3.68184 7.12523L4.06805 12.9183C4.1393 13.9873 4.19685 14.8507 4.33182 15.5283C4.47216 16.2327 4.71084 16.8211 5.20384 17.2823C5.69683 17.7436 6.29979 17.9426 7.012 18.0357C7.69703 18.1254 8.5624 18.1253 9.63372 18.1253H10.3661C11.4374 18.1253 12.3028 18.1254 12.9878 18.0357C13.7 17.9426 14.303 17.7436 14.796 17.2823C15.289 16.8211 15.5276 16.2327 15.668 15.5283C15.803 14.8508 15.8605 13.9873 15.9318 12.9184L16.318 7.12523C16.3409 6.78082 16.0803 6.483 15.7359 6.46004C15.3915 6.43708 15.0937 6.69767 15.0707 7.04208L14.6874 12.7913C14.6126 13.9146 14.5592 14.6961 14.4421 15.2841C14.3284 15.8545 14.1698 16.1564 13.942 16.3695C13.7141 16.5827 13.4023 16.7209 12.8257 16.7963C12.2312 16.8741 11.4478 16.8753 10.3221 16.8753H9.67767C8.55197 16.8753 7.76863 16.8741 7.17413 16.7963C6.59746 16.7209 6.28566 16.5827 6.05782 16.3695C5.82997 16.1564 5.67136 15.8545 5.55774 15.2841C5.4406 14.6961 5.38724 13.9146 5.31236 12.7913L4.92907 7.04208Z" fill="#FF453A"/>
<path d="M7.85439 8.54509C8.19785 8.51075 8.50413 8.76134 8.53847 9.1048L8.95514 13.2715C8.98949 13.6149 8.7389 13.9212 8.39543 13.9556C8.05197 13.9899 7.74569 13.7393 7.71134 13.3958L7.29468 9.22918C7.26033 8.88572 7.51092 8.57944 7.85439 8.54509Z" fill="#FF453A"/>
<path d="M12.7051 9.22918C12.7395 8.88572 12.4889 8.57944 12.1454 8.54509C11.802 8.51075 11.4957 8.76134 11.4613 9.1048L11.0447 13.2715C11.0103 13.6149 11.2609 13.9212 11.6044 13.9556C11.9479 13.9899 12.2541 13.7393 12.2885 13.3958L12.7051 9.22918Z" fill="#FF453A"/>
</svg>
