<svg width="20" height="20" viewBox="0 0 20 20" fill="none" xmlns="http://www.w3.org/2000/svg">
<path fill-rule="evenodd" clip-rule="evenodd" d="M10.0003 1.04175C10.1828 1.04175 10.3561 1.12147 10.4749 1.26L12.9749 4.17667C13.1995 4.43875 13.1692 4.83331 12.9071 5.05795C12.645 5.28259 12.2504 5.25224 12.0258 4.99016L10.6253 3.35628L10.6253 12.5001C10.6253 12.8453 10.3455 13.1251 10.0003 13.1251C9.65515 13.1251 9.37533 12.8453 9.37533 12.5001L9.37533 3.35628L7.97486 4.99016C7.75022 5.25224 7.35566 5.28259 7.09358 5.05795C6.8315 4.83331 6.80115 4.43875 7.02579 4.17667L9.52579 1.26C9.64453 1.12147 9.81787 1.04175 10.0003 1.04175ZM5.83018 6.87672C6.17535 6.8748 6.45673 7.15306 6.45865 7.49823C6.46057 7.8434 6.18231 8.12478 5.83714 8.1267C4.92589 8.13177 4.27999 8.15544 3.78978 8.24548C3.31744 8.33224 3.04405 8.47156 2.84117 8.67443C2.61053 8.90507 2.46016 9.22888 2.37795 9.84036C2.29332 10.4698 2.29199 11.3041 2.29199 12.5003V13.3336C2.29199 14.5298 2.29332 15.364 2.37795 15.9935C2.46016 16.605 2.61053 16.9288 2.84117 17.1594C3.0718 17.3901 3.39561 17.5404 4.00709 17.6226C4.63655 17.7073 5.47081 17.7086 6.66699 17.7086H13.3337C14.5298 17.7086 15.3641 17.7073 15.9936 17.6226C16.605 17.5404 16.9289 17.3901 17.1595 17.1594C17.3901 16.9288 17.5405 16.605 17.6227 15.9935C17.7073 15.364 17.7087 14.5298 17.7087 13.3336V12.5003C17.7087 11.3041 17.7073 10.4698 17.6227 9.84036C17.5405 9.22888 17.3901 8.90507 17.1595 8.67444C16.9566 8.47156 16.6832 8.33224 16.2109 8.24548C15.7207 8.15544 15.0748 8.13177 14.1635 8.1267C13.8183 8.12478 13.5401 7.8434 13.542 7.49823C13.5439 7.15306 13.8253 6.8748 14.1705 6.87672C15.0717 6.88174 15.8229 6.9033 16.4367 7.01605C17.0684 7.13208 17.6059 7.35311 18.0434 7.79055C18.545 8.29215 18.7607 8.92371 18.8616 9.6738C18.9587 10.3963 18.9587 11.3149 18.9587 12.4545V13.3793C18.9587 14.519 18.9587 15.4376 18.8616 16.1601C18.7607 16.9101 18.545 17.5417 18.0434 18.0433C17.5418 18.5449 16.9102 18.7606 16.1601 18.8615C15.4376 18.9586 14.519 18.9586 13.3794 18.9586H6.62127C5.48161 18.9586 4.56301 18.9586 3.84053 18.8615C3.09044 18.7606 2.45888 18.5449 1.95728 18.0433C1.45569 17.5417 1.23994 16.9101 1.1391 16.1601C1.04196 15.4376 1.04198 14.519 1.04199 13.3793V12.4545C1.04198 11.3149 1.04196 10.3963 1.1391 9.6738C1.23994 8.92371 1.45569 8.29215 1.95728 7.79055C2.39473 7.35311 2.93229 7.13208 3.56395 7.01605C4.17775 6.9033 4.92891 6.88173 5.83018 6.87672Z" fill="white"/>
</svg>
