<svg width="24" height="26" viewBox="0 0 24 26" fill="none" xmlns="http://www.w3.org/2000/svg">
<path d="M0.215569 25.7771C0.383234 25.9257 0.57485 26 0.790419 26H5.96407C6.32335 26 6.5988 25.9133 6.79042 25.74C6.98204 25.5419 7.11377 25.381 7.18563 25.2571L11.8563 18.1257L16.6347 25.2571C16.7066 25.381 16.8383 25.5419 17.0299 25.74C17.2455 25.9133 17.5329 26 17.8922 26H23.2455C23.4611 26 23.6407 25.9257 23.7844 25.7771C23.9281 25.6038 24 25.4181 24 25.22C24 25.1457 23.988 25.0714 23.9641 24.9971C23.9641 24.9229 23.9401 24.8486 23.8922 24.7743L15.988 12.7029L7.79641 0.780001C7.72455 0.631429 7.59282 0.470476 7.4012 0.297143C7.20958 0.0990478 6.93413 0 6.57485 0H1.36527C1.1497 0 0.97006 0.086667 0.826347 0.260001C0.682635 0.408572 0.610779 0.581905 0.610779 0.780001C0.610779 0.928572 0.646707 1.07714 0.718563 1.22571L7.97605 12.74L0.143713 24.7743C0.0958084 24.8486 0.0598802 24.9229 0.0359281 24.9971C0.011976 25.0714 0 25.1457 0 25.22C0 25.4181 0.0718563 25.6038 0.215569 25.7771Z" fill="white"/>
<path d="M23.2124 4.1723C23.2124 6.47659 21.406 8.34459 19.1777 8.34459C16.9493 8.34459 15.1429 6.47659 15.1429 4.1723C15.1429 1.868 16.9493 0 19.1777 0C21.406 0 23.2124 1.868 23.2124 4.1723Z" fill="white"/>
</svg>
